<svg width="224" height="232" viewBox="0 0 224 232" fill="none" xmlns="http://www.w3.org/2000/svg">
<path d="M5.29334 176.964L88.8933 225.547C90.6651 226.58 93.5197 226.58 95.2915 225.563L222.319 152.214C224.091 151.197 224.091 149.54 222.319 148.507L138.719 99.9239C136.963 98.9068 134.109 98.9068 132.337 99.9239L5.30976 173.256C3.53794 174.29 3.52152 175.947 5.29334 176.964Z" fill="#AABAFD"/>
<path d="M104.083 181.901C103.084 182.478 103.09 183.418 104.082 183.994L124.69 195.97C125.683 196.547 127.305 196.553 128.304 195.977L168.914 172.531C169.913 171.954 169.907 171.014 168.914 170.438L148.306 158.462C147.314 157.885 145.692 157.878 144.693 158.455L104.083 181.901Z" fill="#2E4277"/>
<path d="M3.98096 175.126L3.99737 180.017C3.99737 180.673 4.44027 181.345 5.30979 181.854L88.9098 230.437C90.6816 231.454 93.5361 231.454 95.3079 230.437L222.335 157.105C223.221 156.596 223.664 155.924 223.664 155.234L223.648 150.361C223.648 151.033 223.205 151.706 222.319 152.214L95.2915 225.563C93.5197 226.58 90.6652 226.58 88.8933 225.547L5.29337 176.964C4.40753 176.455 3.98096 175.799 3.98096 175.126Z" fill="#798FFE"/>
<path d="M132.09 3.18875C133.86 2.16678 135.299 2.98715 135.305 5.0212L135.532 94.3906C135.537 96.4127 134.107 98.902 132.337 99.924L7.14029 172.2C5.37015 173.222 3.93048 172.389 3.92472 170.367L3.69826 80.9978C3.6925 78.9637 5.1228 76.4863 6.89295 75.4644L132.09 3.18875Z" fill="#1B2A4F"/>
<path d="M0.336182 79.0498L0.565862 168.416C0.565862 169.416 0.926821 170.138 1.501 170.466L4.85879 172.419C4.28452 172.091 3.92365 171.369 3.92365 170.368L3.69397 81.0025C3.69397 78.9682 5.12125 76.491 6.89308 75.4575L132.09 3.19009C132.976 2.68153 133.78 2.63238 134.371 2.96041L131.013 1.00772C130.439 0.679595 129.619 0.728747 128.733 1.23731L3.53529 73.5212C1.76346 74.5383 0.336182 77.0155 0.336182 79.0498Z" fill="#384E85"/>
<path d="M8.21704 79.9078L8.43491 166.244L131.013 95.4805L130.795 9.14406L8.21704 79.9078Z" fill="#384E85"/>
<path d="M8.21704 79.9078L8.25362 94.3889L130.832 23.6252L130.795 9.14406L8.21704 79.9078Z" fill="#AABAFD"/>
<path d="M110.584 26.2762C111.766 25.5939 112.727 26.118 112.731 27.4758C112.734 28.8337 111.78 30.487 110.598 31.1693C109.437 31.8399 108.476 31.2923 108.472 29.9345C108.468 28.5765 109.423 26.9467 110.584 26.2762Z" fill="white"/>
<path d="M117.41 22.3354C118.571 21.6649 119.532 22.189 119.536 23.5468C119.54 24.9047 118.585 26.558 117.424 27.2285C116.242 27.9108 115.281 27.3632 115.277 26.0054C115.274 24.6475 116.228 23.0177 117.41 22.3354Z" fill="white"/>
<path d="M124.215 18.4064C125.397 17.7242 126.357 18.2482 126.361 19.6061C126.365 20.9639 125.411 22.6173 124.229 23.2996C123.047 23.9819 122.086 23.4343 122.083 22.0764C122.079 20.7186 123.033 19.0887 124.215 18.4064Z" fill="white"/>
<path d="M30.93 170.967L22.9059 175.63L19.4492 173.634L27.4733 168.971L30.93 170.967Z" fill="#384E85"/>
<path d="M117.269 120.792L109.234 125.461L105.777 123.466L113.812 118.796L117.269 120.792Z" fill="#384E85"/>
<path d="M138.854 108.248L130.819 112.918L127.362 110.922L135.397 106.252L138.854 108.248Z" fill="#384E85"/>
<path d="M124.452 137.448L116.428 142.111L109.293 137.992L117.318 133.329L124.452 137.448Z" fill="#384E85"/>
<path d="M164.03 135.292L155.995 139.962L148.849 135.836L156.884 131.167L164.03 135.292Z" fill="#384E85"/>
<path d="M174.828 129.018L166.793 133.687L150.65 124.367L158.686 119.698L174.828 129.018Z" fill="#384E85"/>
<path d="M147.85 113.442L133.035 122.052L125.889 117.926L140.704 109.316L147.85 113.442Z" fill="#384E85"/>
<path d="M130.283 123.651L122.248 128.32L115.102 124.195L123.137 119.525L130.283 123.651Z" fill="#384E85"/>
<path d="M156.835 118.63L138.002 129.574L130.867 125.455L149.7 114.51L156.835 118.63Z" fill="#384E85"/>
<path d="M135.25 131.173L127.215 135.843L120.08 131.723L128.115 127.054L135.25 131.173Z" fill="#384E85"/>
<path d="M144.247 136.367L136.212 141.037L129.066 136.911L137.101 132.241L144.247 136.367Z" fill="#384E85"/>
<path d="M119.485 129.926L111.45 134.596L104.304 130.47L112.339 125.8L119.485 129.926Z" fill="#384E85"/>
<path d="M106.471 127.067L98.4469 131.73L94.9902 129.734L103.014 125.071L106.471 127.067Z" fill="#384E85"/>
<path d="M95.6843 133.336L87.6492 138.005L84.1926 136.009L92.2277 131.34L95.6843 133.336Z" fill="#384E85"/>
<path d="M101.077 161.455L93.0419 166.124L85.896 161.998L93.9311 157.329L101.077 161.455Z" fill="#384E85"/>
<path d="M84.8863 139.61L76.8621 144.273L73.4055 142.278L81.4296 137.615L84.8863 139.61Z" fill="#384E85"/>
<path d="M97.9001 142.47L89.876 147.133L82.73 143.007L90.7541 138.344L97.9001 142.47Z" fill="#384E85"/>
<path d="M74.0994 145.879L66.0643 150.549L62.6077 148.553L70.6428 143.883L74.0994 145.879Z" fill="#384E85"/>
<path d="M87.1132 148.738L79.0781 153.408L71.9321 149.282L79.9672 144.613L87.1132 148.738Z" fill="#384E85"/>
<path d="M102.867 149.992L94.8434 154.655L87.7085 150.536L95.7326 145.873L102.867 149.992Z" fill="#384E85"/>
<path d="M63.3125 152.148L55.2774 156.817L51.8208 154.821L59.8559 150.152L63.3125 152.148Z" fill="#384E85"/>
<path d="M76.3264 155.007L68.2912 159.676L61.1453 155.551L69.1804 150.881L76.3264 155.007Z" fill="#384E85"/>
<path d="M111.864 155.186L103.84 159.849L96.6936 155.723L104.718 151.06L111.864 155.186Z" fill="#384E85"/>
<path d="M92.0806 156.261L84.0455 160.93L76.9106 156.811L84.9458 152.141L92.0806 156.261Z" fill="#384E85"/>
<path d="M52.5147 158.423L44.4796 163.092L41.0229 161.097L49.0581 156.427L52.5147 158.423Z" fill="#384E85"/>
<path d="M65.5285 161.282L57.4934 165.952L50.3474 161.826L58.3826 157.156L65.5285 161.282Z" fill="#384E85"/>
<path d="M81.2937 162.529L73.2586 167.199L66.1238 163.079L74.1589 158.41L81.2937 162.529Z" fill="#384E85"/>
<path d="M54.7416 167.551L46.7065 172.22L39.5605 168.094L47.5957 163.425L54.7416 167.551Z" fill="#384E85"/>
<path d="M90.29 167.723L82.2549 172.393L75.1089 168.267L83.144 163.598L90.29 167.723Z" fill="#384E85"/>
<path d="M70.4961 168.804L62.461 173.474L55.3262 169.354L63.3613 164.685L70.4961 168.804Z" fill="#384E85"/>
<path d="M79.4921 173.998L71.457 178.668L64.311 174.542L72.3462 169.873L79.4921 173.998Z" fill="#384E85"/>
<path d="M121.322 160.111L80.4531 183.862L73.3071 179.736L114.176 155.985L121.322 160.111Z" fill="#384E85"/>
<path d="M68.7053 180.267L60.6701 184.936L53.5242 180.811L61.5593 176.141L68.7053 180.267Z" fill="#384E85"/>
<path d="M59.7091 175.073L40.8871 186.011L33.7522 181.892L52.5742 170.954L59.7091 175.073Z" fill="#384E85"/>
<path d="M57.9074 186.542L49.8833 191.205L42.7373 187.079L50.7614 182.416L57.9074 186.542Z" fill="#384E85"/>
<path d="M77.7013 185.461L58.8793 196.399L51.7334 192.273L70.5554 181.335L77.7013 185.461Z" fill="#384E85"/>
<path d="M41.7279 164.691L33.6927 169.361L30.2361 167.365L38.2712 162.696L41.7279 164.691Z" fill="#384E85"/>
<path d="M128.056 114.523L120.021 119.193L116.564 117.197L124.599 112.527L128.056 114.523Z" fill="#384E85"/>
<path d="M108.698 136.195L100.663 140.864L93.5171 136.739L101.552 132.069L108.698 136.195Z" fill="#384E85"/>
<path d="M131.658 154.105L123.623 158.774L116.477 154.649L124.512 149.979L131.658 154.105Z" fill="#384E85"/>
<path d="M122.662 148.911L114.627 153.58L107.481 149.455L115.516 144.785L122.662 148.911Z" fill="#384E85"/>
<path d="M113.666 143.717L105.63 148.386L98.4956 144.267L106.531 139.598L113.666 143.717Z" fill="#384E85"/>
<path d="M153.243 141.561L145.208 146.231L138.062 142.105L146.097 137.435L153.243 141.561Z" fill="#384E85"/>
<path d="M142.445 147.836L134.421 152.499L127.275 148.374L135.299 143.71L142.445 147.836Z" fill="#384E85"/>
<path d="M43.9437 173.826L31.9021 180.824L24.7561 176.698L36.7978 169.7L43.9437 173.826Z" fill="#384E85"/>
<path d="M19.6114 102.728C21.1672 101.83 22.0858 102.027 22.7432 102.622L21.8601 104.054C21.2953 103.485 20.5703 103.531 19.6846 104.042C17.8823 105.083 16.7393 107.347 16.7455 109.524C16.7516 111.693 17.9038 112.65 19.706 111.609C20.5917 111.098 21.3146 110.281 21.8743 109.081L22.7627 109.499C22.1108 110.859 21.1963 112.114 19.6405 113.012C17.0989 114.479 15.3827 113.219 15.3745 110.316C15.3663 107.413 17.0698 104.196 19.6114 102.728Z" fill="#D9DDF6"/>
<path d="M25.3413 107.442C25.8651 107.14 26.3132 107.395 26.3149 107.997C26.3166 108.608 25.8713 109.37 25.3476 109.673C24.8162 109.979 24.3758 109.728 24.374 109.118C24.3723 108.516 24.8099 107.749 25.3413 107.442Z" fill="#D9DDF6"/>
<path d="M26.0064 101.044C26.386 100.39 26.387 99.6826 26.0087 99.4627C25.6303 99.2429 25.0159 99.5941 24.6363 100.247C24.2567 100.901 24.2557 101.608 24.634 101.828C25.0124 102.048 25.6268 101.697 26.0064 101.044Z" fill="#D9DDF6"/>
<path d="M28.2881 93.8182L32.5108 105.741L31.471 106.341L27.2483 94.4185L28.2881 93.8182Z" fill="#D9DDF6"/>
<path d="M36.5176 87.6931L43.8891 91.9027L36.5655 104.597L35.3832 103.923L41.5477 93.2545L35.343 89.7274L36.5176 87.6931Z" fill="#D9DDF6"/>
<path d="M52.1205 91.9194L52.1294 95.0877L44.4199 99.5389L44.4109 96.3705L52.1205 91.9194Z" fill="#D9DDF6"/>
</svg>
